<svg width="105" height="60" viewBox="0 0 105 60" fill="none" xmlns="http://www.w3.org/2000/svg">
<g clip-path="url(#clip0_381_201)">
<path d="M12.0835 46.2169C12.0835 43.6192 12.0835 42.3051 12.0835 39.7074C12.0835 38.76 12.0835 37.8432 12.1142 36.9875C12.1142 36.1318 12.145 35.276 12.1757 34.4509C12.2065 33.6257 12.2372 32.8617 12.268 32.0977C12.2987 31.3337 12.3602 30.6002 12.4217 29.8667C12.3295 29.8973 12.2987 29.8973 12.2065 29.9278C12.145 30.5391 12.0835 31.1503 11.9912 31.7309C11.899 32.3422 11.8375 32.9228 11.7453 33.5341C11.653 34.1453 11.5608 34.7565 11.4993 35.3677C11.4071 35.9484 11.3148 36.5596 11.1918 37.1708C10.6384 40.4714 10.0849 43.772 9.53151 47.1032C8.51687 47.4699 8.02492 47.6839 7.04103 48.1117C6.48759 45.1778 5.96489 42.2134 5.41145 39.2795C5.28846 38.5461 5.16548 37.8737 5.07324 37.2319C4.981 36.5902 4.85801 36.0095 4.76577 35.5205C4.67353 35.001 4.64278 34.4509 4.58129 33.9619C4.5198 33.4729 4.4583 32.984 4.42756 32.5255C4.33532 32.5561 4.30457 32.5867 4.24308 32.6172C4.33532 33.9925 4.39681 35.49 4.4583 37.0791C4.48905 37.9043 4.48905 38.7906 4.48905 39.6768C4.48905 40.5937 4.48905 41.5716 4.5198 42.6107C4.5198 45.3001 4.5198 46.6448 4.5198 49.3342C2.73649 50.2815 1.84483 50.8011 0.0615234 52.0235C0.0615234 42.9469 0.0615234 33.8702 0.0615234 24.763C2.55201 23.3572 3.81262 22.8071 6.3031 21.9514C6.8258 24.6713 7.07177 26.0466 7.59447 28.7665C7.68671 29.2249 7.77895 29.7139 7.84044 30.2029C7.90193 30.6919 7.96343 31.1808 8.02492 31.6698C8.08641 32.1894 8.14791 32.7089 8.17865 33.2284C8.2094 33.748 8.27089 34.2675 8.30164 34.8176C8.33239 34.8176 8.36313 34.7871 8.39388 34.7871C8.42463 34.2981 8.45537 33.8091 8.48612 33.3201C8.51687 32.8312 8.57836 32.3116 8.63985 31.7615C8.70135 31.2114 8.76284 30.6307 8.85508 30.0501C8.94732 29.4694 9.03956 28.8276 9.16255 28.1553C9.6545 25.1909 9.93122 23.6934 10.4232 20.7901C12.8522 20.24 14.082 20.0872 16.5418 19.9344C16.5418 28.3692 16.5418 36.7735 16.5418 45.2084C14.7584 45.4835 13.8668 45.6974 12.0835 46.2169Z" fill="#0D4E8D"/>
<path d="M27.2724 44.5055C27.1186 42.9774 27.0264 42.2134 26.8726 40.6854C25.3968 40.5937 24.6589 40.5937 23.183 40.6242C22.9986 42.1829 22.9063 42.9469 22.7526 44.5361C20.7233 44.6277 19.7087 44.7194 17.6794 45.025C18.8785 36.6513 20.1084 28.2775 21.3382 19.9344C24.3207 20.0872 25.8273 20.2705 28.8097 20.8206C30.0088 28.8582 31.2387 36.9263 32.4993 44.9639C30.4085 44.6583 29.3631 44.5666 27.2724 44.5055ZM25.612 29.1944C25.5505 28.7054 25.489 28.247 25.4583 27.8191C25.3968 27.3913 25.3661 26.9329 25.3046 26.505C25.2431 26.0771 25.2123 25.6493 25.2123 25.2214C25.1816 24.7936 25.1508 24.4268 25.1508 24.0295C25.0893 24.0295 25.0893 24.0295 25.0278 24.0295C24.9664 24.9158 24.9049 25.8021 24.8126 26.6578C24.7819 27.0857 24.7204 27.5135 24.6896 27.9414C24.6281 28.3692 24.5974 28.7971 24.5359 29.2249C24.2284 31.3948 24.1054 32.495 23.798 34.6954C24.8126 34.7259 25.3353 34.7565 26.3807 34.8176C26.0425 32.5561 25.8888 31.4559 25.612 29.1944Z" fill="#0D4E8D"/>
<path d="M41.6311 46.4308C40.7702 43.8331 40.309 42.5496 39.4481 39.9213C39.2943 39.4323 39.1406 38.9434 38.9869 38.4544C38.9254 38.2099 38.8639 37.996 38.8331 37.7515C38.7716 37.5375 38.7409 37.2931 38.6794 37.0486C38.6487 37.0486 38.6179 37.0486 38.5872 37.018C38.5872 37.2931 38.6179 37.5681 38.6179 37.8432C38.6179 38.1182 38.6179 38.4238 38.6487 38.7294C38.6487 39.0045 38.6794 39.3712 38.6794 39.7685C38.6794 40.1658 38.6794 40.6242 38.6794 41.1438C38.6794 43.0385 38.6794 43.9859 38.6794 45.8502C36.6809 45.4834 35.697 45.3306 33.7292 45.0556C33.7292 37.3236 33.7292 29.5611 33.7292 21.8291C35.7277 22.3181 36.7116 22.5932 38.6794 23.2044C38.6794 25.1297 38.6794 26.0771 38.6794 27.9719C38.6794 28.2164 38.6794 28.4609 38.6794 28.7359C38.6794 28.9804 38.6794 29.2555 38.6487 29.5305C38.6487 30.0806 38.6179 30.8752 38.5872 31.8226C38.6179 31.8226 38.6487 31.8532 38.6794 31.8532C38.7102 31.7004 38.7716 31.517 38.8024 31.3336C38.8639 31.1503 38.8946 30.9363 38.9561 30.7224C39.0176 30.5085 39.1099 30.3251 39.2021 30.1112C39.2943 29.8973 39.3866 29.6528 39.4788 29.4083C40.3397 27.2385 40.7394 26.1994 41.6003 24.0907C44.0293 24.8852 45.2285 25.2825 47.6574 26.1383C45.9971 29.2249 44.3983 32.3422 42.8302 35.49C44.4598 39.5851 46.1201 43.6498 47.8112 47.7144C45.3207 47.1949 44.0908 46.9198 41.6311 46.4308Z" fill="#0D4E8D"/>
<path d="M57.1889 49.9454C57.0352 48.6007 56.9429 47.9589 56.7892 46.6142C55.2826 46.2475 54.5447 46.0641 53.0688 45.6668C52.8844 46.9504 52.7921 47.5922 52.6076 48.8757C50.5476 48.3868 49.5637 48.1728 47.5344 47.7144C48.7335 40.9604 49.9634 34.2064 51.1933 27.4524C54.1757 28.4915 55.713 29.0721 58.757 30.0806C59.9868 37.0791 61.2167 44.0776 62.5081 51.0761C60.3865 50.6483 59.3104 50.4344 57.1889 49.9454ZM55.4671 36.5596C55.4056 36.1318 55.3441 35.7345 55.3133 35.3372C55.2518 34.9399 55.2211 34.5731 55.1596 34.1758C55.0981 33.7785 55.0674 33.4118 55.0366 33.0451C55.0059 32.6783 54.9751 32.3422 54.9751 32.006C54.9136 31.9754 54.9136 31.9754 54.8521 31.9754C54.7906 32.7089 54.6984 33.4424 54.6369 34.1453C54.6062 34.512 54.5447 34.8482 54.5139 35.2149C54.4524 35.5511 54.4217 35.9178 54.3602 36.254C54.0527 38.0265 53.9297 38.9434 53.6223 40.7465C54.6677 41.0521 55.1903 41.2049 56.2357 41.4799C55.9283 39.524 55.7745 38.5461 55.4671 36.5596Z" fill="#0D4E8D"/>
<path d="M76.9283 40.7465C76.9283 43.0691 76.5593 44.7805 75.7907 45.8807C75.022 46.981 73.8229 47.5005 72.2241 47.2866C70.8712 47.1032 70.1948 47.0115 68.8419 46.767C68.8419 48.9063 68.8419 49.9759 68.8419 52.1458C66.7819 51.8707 65.7672 51.6874 63.7072 51.2901C63.7072 44.75 63.7072 38.2099 63.7072 31.6698C66.5974 32.5867 69.5491 33.3813 72.5315 33.9925C74.0381 34.3286 75.1757 35.001 75.8829 36.0706C76.5593 37.1708 76.9283 38.6989 76.9283 40.7465ZM71.8858 40.6854C71.8858 40.3492 71.8551 40.0741 71.7936 39.8297C71.7321 39.5852 71.6399 39.3712 71.4861 39.1879C71.3324 39.0045 71.1172 38.8517 70.8712 38.7294C70.5945 38.6072 70.2563 38.485 69.8566 38.3933C69.4568 38.3016 69.2416 38.271 68.8112 38.1793C68.8112 39.8602 68.8112 40.6854 68.8112 42.3662C69.1801 42.4273 69.3646 42.4885 69.7028 42.5496C70.5022 42.7024 71.0557 42.6413 71.3939 42.3662C71.7014 42.0606 71.8858 41.5105 71.8858 40.6854Z" fill="#0D4E8D"/>
<path d="M91.9019 44.9945C91.9019 47.0726 91.533 48.7535 90.7643 49.9759C89.9957 51.229 88.7965 52.0235 87.1977 52.268C84.4612 52.6959 81.6018 52.9098 78.8346 52.8487C78.8346 46.9198 78.8346 40.9604 78.8346 35.0316C80.8331 35.276 81.817 35.3677 83.8156 35.4288C83.8156 37.7515 83.8156 38.8823 83.8156 41.2049C83.8156 41.2049 83.9078 41.1743 84.0308 41.1438C84.1538 41.1132 84.3998 41.0521 84.7687 41.0215C85.1377 40.9604 85.6296 40.9299 86.2138 40.8993C87.1055 40.8382 87.9049 40.8687 88.5198 40.9604C89.1655 41.0521 89.6882 41.2049 90.1186 41.3883C90.5491 41.6022 90.8873 41.8161 91.1025 42.1217C91.3485 42.3968 91.533 42.7024 91.656 43.0386C91.779 43.3747 91.8404 43.7109 91.8712 44.0471C91.9019 44.4138 91.9019 44.7194 91.9019 44.9945ZM87.044 46.3697C87.044 46.0641 87.0132 45.8196 86.9517 45.6057C86.8902 45.3918 86.7673 45.239 86.6135 45.1167C86.4598 44.9945 86.2446 44.9028 85.9986 44.8722C85.7526 44.8111 85.4144 44.8111 84.9839 44.8417C84.492 44.8722 84.246 44.8722 83.7541 44.9028C83.7541 46.4309 83.7541 47.1949 83.7541 48.7229C84.1845 48.6924 84.3997 48.6924 84.8302 48.6618C85.6296 48.6007 86.1831 48.3868 86.5213 48.0506C86.8595 47.6839 87.044 47.1338 87.044 46.3697Z" fill="#0D4E8D"/>
<path d="M93.962 50.74C93.962 45.4223 93.962 40.0741 93.962 34.7565C97.8053 34.023 101.526 32.77 105 31.0586C105 32.77 105 33.6257 105 35.3372C102.571 36.6207 101.372 37.1403 98.9429 37.996C98.9429 38.6989 98.9429 39.0656 98.9429 39.7685C101.372 38.8822 102.571 38.3321 105 37.018C105 38.3016 105 38.9434 105 40.2269C102.571 41.6022 101.372 42.1828 98.9429 43.1302C98.9429 43.8943 98.9429 44.261 98.9429 45.025C101.372 44.0471 102.571 43.4358 105 42.03C105 43.497 105 44.261 105 45.7279C101.433 47.745 97.8976 49.5481 93.962 50.74Z" fill="#0D4E8D"/>
<path d="M79.5417 -0.816625C78.896 -1.12224 78.2504 -0.999991 77.6969 -0.572136C77.0512 -0.0831576 76.6823 0.589187 76.467 1.38378C76.2826 2.05612 76.2826 2.72847 76.6515 3.33969C76.7438 3.52305 76.713 3.67586 76.6208 3.82867C76.2518 4.47045 75.9136 5.08167 75.5446 5.72346C74.3455 7.86273 73.1157 10.002 71.9165 12.1413C71.8243 12.2941 71.732 12.3247 71.5476 12.2941C71.0864 12.2024 70.5944 12.1413 70.1332 12.1107C68.8419 12.0802 67.612 12.5386 66.4129 12.997C64.814 13.6082 63.3382 14.4639 61.8931 15.3808C59.8638 16.6643 58.019 18.1313 56.3587 19.8427C54.8521 21.4013 53.4685 23.1127 52.1771 24.8547C51.9004 25.2215 51.6237 25.6187 51.347 25.9855C51.7467 26.1077 52.1157 26.2605 52.5154 26.3828C59.6793 28.9499 66.8741 31.3948 74.0381 32.8006C75.2679 29.2555 75.8829 25.5882 75.9136 21.7986C75.9443 19.9955 75.8214 18.1924 75.3294 16.4504C74.9605 15.1668 74.407 13.975 73.3309 13.0887C73.2079 12.997 73.2694 12.9053 73.3309 12.8136C73.6998 12.0496 74.0995 11.2856 74.4685 10.5216C75.5139 8.41284 76.5593 6.30412 77.5739 4.1954C77.6662 4.01203 77.7892 3.92035 78.0044 3.85923C78.2504 3.82867 78.4963 3.76754 78.6808 3.6453C79.7877 2.97295 80.4026 1.96444 80.4334 0.650309C80.4641 0.0390869 80.1567 -0.511013 79.5417 -0.816625ZM69.7028 15.9309C61.2474 20.1177 58.0498 26.8412 58.0498 26.8412L54.2064 25.4659C54.7291 24.7019 57.2196 22.1042 58.4187 20.8818C58.4187 20.8512 58.4495 20.8512 58.4495 20.8207C58.511 20.7595 58.5725 20.6984 58.634 20.6373C58.8799 20.3928 59.0029 20.24 59.0029 20.24C61.0629 18.1924 63.3997 16.481 66.1054 15.2585C67.3968 14.6779 68.7189 14.1889 70.1025 13.9138C70.2255 13.8833 70.3484 13.8833 70.4714 13.8833C71.4553 14.2806 70.4099 15.5947 69.7028 15.9309Z" fill="#F15A29"/>
<path d="M6.76428 52.2681C5.04246 52.8793 4.1508 53.246 2.42899 54.0712C2.42899 54.6518 2.42899 54.8658 2.42899 55.3242C4.02782 54.7435 4.85798 54.4685 6.45681 54.01C6.45681 54.6518 6.45681 54.9269 6.45681 55.5381C4.82723 55.8437 4.02782 56.0271 2.42899 56.4549C2.42899 57.4634 2.42899 57.9219 2.42899 59.7555C1.4451 59.7555 0.953148 59.7861 0 59.7861C0 56.0576 0 57.5246 0 53.7961C2.70571 51.993 4.05857 51.2595 6.73353 50.0677C6.76428 51.0762 6.76428 51.504 6.76428 52.2681Z" fill="#F15A29"/>
<path d="M13.6516 59.6944C11.4378 59.6944 10.3002 59.725 8.08641 59.725C8.08641 58.7776 8.08641 58.3497 8.08641 57.6162C8.70134 57.5551 9.00881 57.5551 9.65449 57.494C9.62375 54.6212 9.62375 54.0711 9.593 51.1678C8.97807 51.3512 8.6706 51.4429 8.05566 51.6568C8.05566 50.8928 8.05566 50.4955 8.05566 49.5481C10.2694 48.6618 11.3763 48.2951 13.5593 47.745C13.5593 48.8146 13.5593 49.3036 13.5901 50.1899C12.9751 50.3121 12.6677 50.3733 12.0527 50.5261C12.0835 53.6127 12.0835 54.2545 12.1142 57.3412C12.7292 57.3106 13.0366 57.2801 13.6823 57.2495C13.6208 58.1358 13.6208 58.5942 13.6516 59.6944Z" fill="#F15A29"/>
<path d="M23.183 55.2325C23.2137 56.4244 22.814 57.5551 22.0454 58.472C21.2767 59.4193 20.2006 59.9389 18.817 59.9389C18.0175 59.9389 17.3411 59.8166 16.7569 59.6027C16.1727 59.3888 15.6193 59.0832 15.0966 58.7776C15.0966 57.4023 15.0659 56.8217 15.0659 55.7215C15.1581 55.7215 15.2196 55.7215 15.3426 55.6909C15.8653 56.1493 16.4187 56.516 17.0644 56.7911C17.6793 57.0661 18.2943 57.1884 18.8784 57.1884C19.0322 57.1884 19.2167 57.1578 19.4626 57.1273C19.7086 57.0967 19.8931 57.0356 20.0468 56.9439C20.2313 56.8217 20.385 56.6994 20.508 56.5466C20.631 56.3938 20.6925 56.1493 20.6925 55.8437C20.6925 55.5686 20.6003 55.3547 20.4158 55.1714C20.2313 54.988 19.9853 54.8657 19.6471 54.7741C19.2782 54.6824 18.9092 54.5907 18.5095 54.5296C18.1098 54.4684 17.7408 54.3768 17.4026 54.2545C16.6032 54.01 16.019 53.6433 15.6808 53.1849C15.3118 52.7265 15.1274 52.1152 15.1274 51.3206C15.1274 50.251 15.4963 49.2119 16.265 48.2034C17.0336 47.2255 18.0483 46.5226 19.2782 46.4003C19.8931 46.3392 20.508 46.3698 21.123 46.5531C21.7379 46.7059 22.2606 46.9504 22.691 47.2255C22.7218 48.6618 22.7218 49.2731 22.7525 50.4344C22.6603 50.4344 22.5988 50.4344 22.5066 50.4344C22.1069 50.0371 21.6457 49.7009 21.0922 49.4564C20.5388 49.2119 19.9853 49.0897 19.4011 49.1508C19.1859 49.1814 19.0014 49.2119 18.7862 49.2731C18.571 49.3342 18.3865 49.4259 18.202 49.5481C18.0483 49.6703 17.8946 49.7926 17.7716 50.0065C17.6486 50.1899 17.5871 50.4038 17.5871 50.6177C17.5871 50.9539 17.6793 51.1678 17.8946 51.3206C18.079 51.4735 18.448 51.5957 18.9707 51.6874C19.3089 51.7485 19.6471 51.8096 19.9853 51.8708C20.3235 51.9319 20.6618 52.0236 21.0307 52.1458C21.7686 52.3903 22.2913 52.7876 22.6603 53.2766C22.9678 53.735 23.1522 54.3768 23.183 55.2325Z" fill="#F15A29"/>
<path d="M33.4524 59.6638C32.4685 59.6638 31.9765 59.6638 30.9926 59.6638C30.9312 56.7911 30.9004 55.8437 30.8697 53.8572C29.4246 53.7961 28.7174 53.7655 27.2723 53.7655C27.303 55.8131 27.3338 56.7605 27.3953 59.6944C26.4114 59.6944 25.9194 59.6944 24.9355 59.6944C24.8741 55.263 24.7818 50.8622 24.6896 46.4309C25.6735 46.4309 26.1347 46.4309 27.1186 46.4614C27.1493 48.8758 27.1801 49.762 27.2108 51.504C28.6559 51.5346 29.3631 51.5651 30.8082 51.6568C30.7774 49.9454 30.7467 49.0897 30.7159 46.6754C31.6998 46.7671 32.161 46.8282 33.1449 46.9199C33.2372 51.1679 33.3601 55.4158 33.4524 59.6638Z" fill="#F15A29"/>
<path d="M41.0161 59.6944C38.8023 59.6944 37.6647 59.6944 35.451 59.6638C35.4202 58.5331 35.4202 58.0441 35.3895 57.1273C36.0044 57.1578 36.3119 57.1578 36.9575 57.1578C36.8653 53.8878 36.8346 53.1543 36.7423 49.8843C36.1274 49.7926 35.8199 49.762 35.205 49.7009C35.1742 48.7841 35.1742 48.2951 35.1435 47.1643C37.3573 47.4699 38.4641 47.6839 40.6472 48.1117C40.6779 49.1814 40.6779 49.6398 40.7086 50.4649C40.0937 50.3733 39.7862 50.3121 39.1713 50.2204C39.2636 53.3988 39.325 54.0712 39.4173 57.2495C40.0322 57.2801 40.3397 57.2801 40.9854 57.3106C40.9854 58.1663 40.9854 58.6248 41.0161 59.6944Z" fill="#F15A29"/>
<path d="M51.6545 59.725C50.7013 59.725 50.2401 59.725 49.287 59.725C47.5344 56.1188 46.6735 55.5381 44.9517 52.6042C45.0747 55.2936 45.1362 55.8437 45.2591 59.6944C44.3675 59.6944 43.9063 59.6944 43.0146 59.6944C42.9224 55.9659 42.7072 52.2375 42.6149 48.509C43.7833 48.7535 44.3675 48.8758 45.5051 49.1203C46.981 52.6042 47.7189 53.3683 49.1947 55.3853C49.1025 53.4905 49.041 52.8793 48.918 49.8843C49.8097 50.0982 50.2401 50.1899 51.1318 50.3733C51.3162 53.5211 51.5007 56.6383 51.6545 59.725Z" fill="#F15A29"/>
<path d="M62.5081 59.236C62.0776 59.3888 61.5242 59.5416 60.817 59.725C60.1098 59.9083 59.4026 60 58.7262 60C57.0966 60 55.836 59.4193 54.8829 58.472C53.9297 57.5246 53.407 56.4549 53.3148 55.2936C53.2533 54.1628 53.653 53.246 54.5754 52.5125C55.4978 51.7791 56.8507 51.504 58.6032 51.8707C59.2489 52.0236 59.8946 52.2069 60.4788 52.4514C61.063 52.6959 61.7394 53.0932 62.4773 53.521C62.4773 54.3462 62.4773 54.6824 62.4773 55.2325C62.3543 55.2019 62.2928 55.2019 62.2006 55.2019C62.0776 55.1408 61.8931 55.0185 61.6471 54.8657C61.4012 54.7129 61.1859 54.5907 60.94 54.4684C60.694 54.3156 60.3865 54.1934 60.0483 54.0406C59.7101 53.8878 59.3411 53.7961 58.9414 53.735C58.4802 53.6433 58.0805 53.6433 57.7116 53.6739C57.3426 53.7044 57.0044 53.8267 56.7277 53.9795C56.451 54.1323 56.2357 54.3462 56.1127 54.6212C55.959 54.8963 55.8975 55.2019 55.9283 55.5686C55.959 56.3021 56.2665 56.9133 56.8507 57.4023C57.4348 57.8913 58.265 58.1663 59.3719 58.2275C59.4641 58.2275 59.5564 58.2275 59.6794 58.2275C59.8023 58.2275 59.8946 58.2275 59.9868 58.2275C59.9868 57.6162 59.9561 57.3412 59.9561 56.8828C59.1874 56.8216 58.7877 56.7911 58.019 56.73C57.9883 56.241 57.9883 56.0271 57.9883 55.5381C59.8023 55.752 60.694 55.8743 62.5081 56.0576C62.5081 57.1273 62.5081 57.4329 62.5081 59.236Z" fill="#F15A29"/>
<path d="M70.5945 60C69.8565 60 69.1494 59.8777 68.5037 59.6638C67.858 59.4499 67.3046 59.1443 66.8741 58.7775C66.4129 58.4108 66.0747 58.0441 65.798 57.6468C65.552 57.2495 65.429 56.8827 65.429 56.4549C65.429 56.0882 65.552 55.7214 65.798 55.3852C66.0439 55.0491 66.3822 54.7129 66.8434 54.4379C67.2738 54.1628 67.8273 53.9183 68.4729 53.7961C69.1186 53.6738 69.8258 53.6433 70.5945 53.7349C71.0249 53.7961 71.3939 53.8572 71.7321 53.9489C72.0703 54.0406 72.4085 54.1322 72.6852 54.2239C72.9927 54.3156 73.2694 54.4379 73.5154 54.5601C73.7614 54.6823 73.9766 54.774 74.1611 54.8351C74.1611 55.5992 74.1611 55.8437 74.1611 56.2715C74.0381 56.2715 73.9766 56.2715 73.8536 56.241C73.7306 56.1798 73.5769 56.1187 73.3617 56.027C73.1772 55.9354 72.962 55.8437 72.716 55.752C72.47 55.6603 72.1933 55.5686 71.9166 55.4769C71.6398 55.3852 71.3016 55.3241 70.9942 55.2936C70.6252 55.263 70.287 55.263 69.9488 55.2936C69.6106 55.3241 69.3031 55.4158 69.0264 55.5381C68.7497 55.6603 68.5344 55.8131 68.3807 55.9965C68.227 56.1798 68.1347 56.3938 68.1347 56.6688C68.1347 56.9439 68.227 57.1884 68.4114 57.4023C68.5959 57.6162 68.8112 57.7996 69.0879 57.9524C69.3646 58.1052 69.6721 58.2274 70.0103 58.2886C70.3485 58.3497 70.6867 58.4108 71.0249 58.4108C71.3324 58.4108 71.6706 58.4108 71.9781 58.3497C72.2855 58.2886 72.5622 58.2274 72.839 58.1663C73.0542 58.1052 73.2694 58.0441 73.4539 57.9524C73.6384 57.8913 73.7921 57.8301 73.9151 57.769C74.0381 57.769 74.0688 57.769 74.1918 57.769C74.1918 58.1969 74.1918 58.4414 74.1918 59.1748C73.9459 59.2665 73.6999 59.3582 73.4539 59.4193C73.2079 59.511 72.9927 59.5721 72.716 59.6332C72.3778 59.7249 72.0703 59.7861 71.7936 59.8166C71.4861 59.9694 71.0864 60 70.5945 60Z" fill="#F15A29"/>
<path d="M83.3851 59.8166C80.4642 59.8166 79.0191 59.8166 76.0981 59.8166C76.0981 56.241 76.0981 57.9829 76.0981 54.4073C77.1435 54.4684 77.6662 54.4684 78.7116 54.4684C78.7116 57.3412 78.7116 56.6688 78.7116 58.4414C80.5872 58.4414 81.5403 58.4414 83.4159 58.4108C83.3851 58.8692 83.3851 59.1137 83.3851 59.8166Z" fill="#F15A29"/>
<path d="M93.8389 56.8522C93.8389 57.6162 93.47 58.4108 92.7013 59.022C91.9326 59.6333 90.8258 60 89.3499 60C87.8741 60 86.7365 59.6333 85.9985 59.1443C85.2299 58.6553 84.8609 58.0746 84.8609 57.5551C84.8609 56.4549 84.8609 56.4855 84.8609 54.1628C85.9063 54.0406 86.429 53.9794 87.4744 53.7961C87.4744 56.1493 87.4744 56.2104 87.4744 57.3412C87.4744 57.6468 87.6281 57.9218 87.9048 58.1358C88.2123 58.3191 88.6735 58.4414 89.3499 58.4108C89.9956 58.3802 90.4875 58.258 90.795 58.0135C91.1025 57.769 91.2562 57.4329 91.2562 57.0661C91.2562 55.7214 91.2562 55.5686 91.2562 53.0321C92.3016 52.7876 92.8243 52.6348 93.8697 52.2986C93.8389 55.0491 93.8389 55.2936 93.8389 56.8522Z" fill="#F15A29"/>
<path d="M104.939 55.6297C104.939 56.1798 104.846 56.7299 104.631 57.2189C104.447 57.7079 104.17 58.1663 103.832 58.5331C103.432 58.9609 103.001 59.2665 102.51 59.4499C102.018 59.6333 101.433 59.7249 100.695 59.7249C98.9429 59.7555 98.0513 59.7555 96.2679 59.7555C96.2679 55.1408 96.2679 56.1187 96.2679 51.4734C97.836 50.8928 98.6354 50.5566 100.204 49.8231C101.034 49.4258 101.618 49.1813 101.987 49.0591C102.356 48.9369 102.755 48.9063 103.124 48.9674C103.493 49.0285 103.801 49.2425 103.985 49.5481C104.17 49.8843 104.262 50.2815 104.262 50.7705C104.262 51.3512 104.139 51.8707 103.862 52.3597C103.616 52.8487 103.247 53.246 102.756 53.5822C102.756 53.6127 102.756 53.6127 102.756 53.6433C103.432 53.5821 103.955 53.6738 104.324 53.9794C104.723 54.3156 104.939 54.8657 104.939 55.6297ZM101.587 52.4208C101.587 52.268 101.556 52.1152 101.464 51.9624C101.372 51.8402 101.218 51.7485 101.034 51.7485C100.849 51.7485 100.603 51.8096 100.327 51.9013C100.05 51.993 99.6501 52.1458 99.1274 52.3291C99.0351 52.3597 98.9737 52.3903 98.8814 52.4208C98.8814 53.246 98.8814 53.5821 98.8814 54.2545C99.0351 54.2239 99.1274 54.1934 99.2811 54.1322C99.6808 54.01 100.05 53.9183 100.327 53.8266C100.603 53.735 100.849 53.6127 101.003 53.4905C101.249 53.3377 101.403 53.1543 101.464 52.9709C101.556 52.8487 101.587 52.6348 101.587 52.4208ZM102.202 56.0882C102.202 55.7826 102.141 55.5381 102.018 55.4158C101.895 55.2936 101.679 55.2019 101.372 55.2019C101.157 55.2019 100.88 55.2324 100.542 55.2936C100.173 55.3547 99.8038 55.4464 99.4349 55.5075C99.2196 55.5381 99.0966 55.5686 98.8507 55.6297C98.8507 56.3938 98.8507 56.7911 98.8507 57.7385C98.9122 57.7385 98.9737 57.7385 99.0351 57.7079C99.7731 57.6468 100.296 57.5857 100.603 57.5551C100.911 57.5245 101.218 57.4328 101.464 57.28C101.741 57.1272 101.925 56.9439 102.018 56.7299C102.171 56.5466 102.202 56.3327 102.202 56.0882Z" fill="#F15A29"/>
</g>
<defs>
<clipPath id="clip0_381_201">
<rect width="105" height="61" fill="white" transform="translate(0 -1)"/>
</clipPath>
</defs>
</svg>
