<svg width="36" height="36" viewBox="0 0 36 36" fill="none" xmlns="http://www.w3.org/2000/svg">
<path d="M4.5 12H31.5C31.8978 12 32.2794 11.842 32.5607 11.5607C32.842 11.2794 33 10.8978 33 10.5C33 10.1022 32.842 9.72064 32.5607 9.43934C32.2794 9.15804 31.8978 9 31.5 9H4.5C4.10218 9 3.72064 9.15804 3.43934 9.43934C3.15804 9.72064 3 10.1022 3 10.5C3 10.8978 3.15804 11.2794 3.43934 11.5607C3.72064 11.842 4.10218 12 4.5 12ZM31.5 24H4.5C4.10218 24 3.72064 24.158 3.43934 24.4393C3.15804 24.7206 3 25.1022 3 25.5C3 25.8978 3.15804 26.2794 3.43934 26.5607C3.72064 26.842 4.10218 27 4.5 27H31.5C31.8978 27 32.2794 26.842 32.5607 26.5607C32.842 26.2794 33 25.8978 33 25.5C33 25.1022 32.842 24.7206 32.5607 24.4393C32.2794 24.158 31.8978 24 31.5 24ZM31.5 16.5H4.5C4.10218 16.5 3.72064 16.658 3.43934 16.9393C3.15804 17.2206 3 17.6022 3 18C3 18.3978 3.15804 18.7794 3.43934 19.0607C3.72064 19.342 4.10218 19.5 4.5 19.5H31.5C31.8978 19.5 32.2794 19.342 32.5607 19.0607C32.842 18.7794 33 18.3978 33 18C33 17.6022 32.842 17.2206 32.5607 16.9393C32.2794 16.658 31.8978 16.5 31.5 16.5Z" fill="#0062BD"/>
</svg>
