<svg width="80" height="40" viewBox="0 0 80 40" fill="none" xmlns="http://www.w3.org/2000/svg">
<rect x="1.5" y="1.5" width="77" height="37" rx="18.5" stroke="#AEAEAE" stroke-width="3"/>
<path d="M63.31 18.935L54.82 10.46C54.6805 10.3194 54.5146 10.2078 54.3318 10.1317C54.149 10.0555 53.953 10.0163 53.755 10.0163C53.557 10.0163 53.3609 10.0555 53.1781 10.1317C52.9953 10.2078 52.8294 10.3194 52.69 10.46C52.4106 10.741 52.2538 11.1212 52.2538 11.5175C52.2538 11.9138 52.4106 12.294 52.69 12.575L60.115 20.075L52.69 27.5C52.4106 27.781 52.2538 28.1612 52.2538 28.5575C52.2538 28.9538 52.4106 29.334 52.69 29.615C52.8289 29.7567 52.9946 29.8695 53.1774 29.9467C53.3602 30.024 53.5565 30.0642 53.755 30.065C53.9534 30.0642 54.1498 30.024 54.3326 29.9467C54.5154 29.8695 54.6811 29.7567 54.82 29.615L63.31 21.14C63.4622 20.9995 63.5837 20.8291 63.6669 20.6393C63.75 20.4496 63.7929 20.2446 63.7929 20.0375C63.7929 19.8303 63.75 19.6254 63.6669 19.4357C63.5837 19.2459 63.4622 19.0755 63.31 18.935Z" fill="#AEAEAE"/>
</svg>
