<svg width="40" height="40" viewBox="0 0 40 40" fill="none" xmlns="http://www.w3.org/2000/svg">
<rect x="1.5" y="1.5" width="37" height="37" rx="18.5" stroke="#0062BD" stroke-width="3"/>
<path d="M14.69 21.065L23.18 29.54C23.3195 29.6806 23.4854 29.7922 23.6682 29.8683C23.851 29.9445 24.047 29.9837 24.245 29.9837C24.443 29.9837 24.6391 29.9445 24.8219 29.8683C25.0047 29.7922 25.1706 29.6806 25.31 29.54C25.5894 29.259 25.7462 28.8788 25.7462 28.4825C25.7462 28.0862 25.5894 27.706 25.31 27.425L17.885 19.925L25.31 12.5C25.5894 12.219 25.7462 11.8388 25.7462 11.4425C25.7462 11.0462 25.5894 10.666 25.31 10.385C25.1711 10.2433 25.0054 10.1305 24.8226 10.0533C24.6398 9.97603 24.4435 9.93583 24.245 9.93501C24.0466 9.93583 23.8502 9.97603 23.6674 10.0533C23.4846 10.1305 23.3189 10.2433 23.18 10.385L14.69 18.86C14.5378 19.0005 14.4163 19.1709 14.3331 19.3607C14.25 19.5504 14.2071 19.7554 14.2071 19.9625C14.2071 20.1697 14.25 20.3746 14.3331 20.5643C14.4163 20.7541 14.5378 20.9245 14.69 21.065V21.065Z" fill="#0062BD"/>
</svg>
